<svg id="add" width="16px" height="16px" viewBox="0 0 16 16" version="1.1" xmlns="http://www.w3.org/2000/svg" xmlns:xlink="http://www.w3.org/1999/xlink">
  <g fill-rule="evenodd">
    <g transform="translate(-686.000000, -871.000000)">
      <path d="M701,878 L695,878 L695,872 C695,871.448 694.552,871 694,871 C693.448,871 693,871.448 693,872 L693,878 L687,878 C686.448,878 686,878.448 686,879 C686,879.552 686.448,880 687,880 L693,880 L693,886 C693,886.552 693.448,887 694,887 C694.552,887 695,886.552 695,886 L695,880 L701,880 C701.552,880 702,879.552 702,879 C702,878.448 701.552,878 701,878" id="Add"></path>
    </g>
  </g>
</svg>