<svg id="close" width="14px" height="14px" viewBox="0 0 14 14" version="1.1" xmlns="http://www.w3.org/2000/svg" xmlns:xlink="http://www.w3.org/1999/xlink">
  <g fill-rule="evenodd">
    <g transform="translate(-322.000000, -746.000000)">
      <path d="M330.41425,753.00025 L335.70725,747.70725 C336.09825,747.31625 336.09825,746.68425 335.70725,746.29325 C335.31625,745.90225 334.68425,745.90225 334.29325,746.29325 L329.00025,751.58625 L323.70725,746.29325 C323.31625,745.90225 322.68425,745.90225 322.29325,746.29325 C321.90225,746.68425 321.90225,747.31625 322.29325,747.70725 L327.58625,753.00025 L322.29325,758.29325 C321.90225,758.68425 321.90225,759.31625 322.29325,759.70725 C322.48825,759.90225 322.74425,760.00025 323.00025,760.00025 C323.25625,760.00025 323.51225,759.90225 323.70725,759.70725 L329.00025,754.41425 L334.29325,759.70725 C334.48825,759.90225 334.74425,760.00025 335.00025,760.00025 C335.25625,760.00025 335.51225,759.90225 335.70725,759.70725 C336.09825,759.31625 336.09825,758.68425 335.70725,758.29325 L330.41425,753.00025" id="close"></path>
    </g>
  </g>
</svg>