<svg id="confirmed" width="18px" height="18px" viewBox="0 0 18 18" version="1.1" xmlns="http://www.w3.org/2000/svg" xmlns:xlink="http://www.w3.org/1999/xlink">
  <g fill-rule="evenodd">
    <g transform="translate(-139.000000, -2479.000000)">
      <path d="M148,2479 C143.029,2479 139,2483.029 139,2488 C139,2492.971 143.029,2497 148,2497 C152.971,2497 157,2492.971 157,2488 C157,2483.029 152.971,2479 148,2479 M147.063,2492 C146.809,2492 146.555,2491.904 146.36,2491.712 L144.298,2489.711 C143.904,2489.323 143.9,2488.69 144.289,2488.298 C144.677,2487.903 145.31,2487.901 145.702,2488.289 L147.056,2489.588 L151.29,2485.295 C151.682,2484.905 152.314,2484.902 152.705,2485.29 C153.097,2485.681 153.099,2486.313 152.71,2486.705 L147.773,2491.705 C147.576,2491.901 147.319,2492 147.063,2492" id="confirmed"></path>
    </g>
  </g>
</svg>