<svg id="edit" width="18px" height="19px" viewBox="0 0 18 19" version="1.1" xmlns="http://www.w3.org/2000/svg" xmlns:xlink="http://www.w3.org/1999/xlink">
  <g fill-rule="evenodd">
    <g transform="translate(-321.000000, -498.000000)">
      <path d="M338,514.05127 L331,514.05127 L328.78,516.04827 L338,516.04827 C338.55,516.04827 339,515.59827 339,515.04827 C339,514.49827 338.55,514.05127 338,514.05127 L338,514.05127 Z M335.09,498.05127 C334.45,498.05127 333.81,498.29327 333.32,498.77827 L321.65,510.45827 C321.28,510.82827 321,511.50827 321,512.02827 L321,515.04827 C321,515.59827 321.45,516.04827 322,516.04827 L325.03,516.04827 C325.56,516.04827 326.22,515.76827 326.59,515.39827 L337.45,504.54827 L338.27,503.72827 C339.24,502.74827 339.24,501.16827 338.27,500.18827 L336.86,498.77827 C336.37,498.29327 335.73,498.05127 335.09,498.05127 L335.09,498.05127 Z M323,514.04827 L323,512.06827 C323.01,512.00827 323.06,511.88827 323.06,511.86827 L332.27,502.65827 L334.52,504.63827 L325.21,513.95827 C325.16,513.99827 325.05,514.03827 325.03,514.04827 L323,514.04827 Z" id="Edit"></path>
    </g>
  </g>
</svg>