<svg id="error" fill="#E64552" width="18px" height="18px" viewBox="0 0 18 18" version="1.1" xmlns="http://www.w3.org/2000/svg" xmlns:xlink="http://www.w3.org/1999/xlink">
  <g fill-rule="evenodd">
    <g transform="translate(-685.000000, -2479.000000)">
      <path d="M694,2497 C698.97,2497 703,2492.971 703,2488 C703,2483.029 698.97,2479 694,2479 C689.029,2479 685,2483.029 685,2488 C685,2492.971 689.029,2497 694,2497 M693.5,2491 L694.5,2491 C694.776,2491 695,2491.225 695,2491.5 L695,2492.5 C695,2492.775 694.776,2493 694.5,2493 L693.5,2493 C693.223,2493 693,2492.775 693,2492.5 L693,2491.5 C693,2491.225 693.223,2491 693.5,2491 M693.5,2483 L694.5,2483 C694.776,2483 695,2483.224 695,2483.5 L695,2488.5 C695,2488.775 694.776,2489 694.5,2489 L693.5,2489 C693.223,2489 693,2488.775 693,2488.5 L693,2483.5 C693,2483.224 693.223,2483 693.5,2483" id="error"></path>
    </g>
  </g>
</svg>