<svg id="image" width="18px" height="18px" viewBox="0 0 18 18" version="1.1" xmlns="http://www.w3.org/2000/svg" xmlns:xlink="http://www.w3.org/1999/xlink">
  <g fill-rule="evenodd">
    <g transform="translate(-503.000000, -1860.000000)">
      <path d="M518.523,1860 L505.477,1860 C504.088,1860 503,1861.055 503,1862.401 L503,1875.599 C503,1876.945 504.088,1878 505.477,1878 L518.523,1878 C519.912,1878 521,1876.945 521,1875.599 L521,1862.401 C521,1861.055 519.912,1860 518.523,1860 M505.477,1862 L518.523,1862 C518.574,1862 519.019,1862.012 519.019,1862.401 L519.019,1874.02 L515.894,1871.151 L513,1873.062 L509.042,1869.466 L504.982,1872 L504.982,1862.5 C504.982,1862.225 505.203,1862 505.477,1862 M517,1866 C517,1864.895 516.105,1864 515,1864 C513.895,1864 513,1864.895 513,1866 C513,1867.105 513.895,1868 515,1868 C516.105,1868 517,1867.105 517,1866" id="insert-image"></path>
    </g>
  </g>
</svg>