<svg id="sync" width="18px" height="14px" viewBox="0 0 18 14" version="1.1" xmlns="http://www.w3.org/2000/svg" xmlns:xlink="http://www.w3.org/1999/xlink">
  <g fill-rule="evenodd">
    <g transform="translate(-321.000000, -1245.000000)">
      <path d="M323.053345,1251.002 L321.731345,1251.002 C321.126345,1251.002 320.784345,1251.528 321.151345,1252.002 L323.419345,1256.438 C323.711345,1256.816 324.271345,1256.773 324.580345,1256.288 L326.848345,1252.002 C327.215345,1251.528 326.873345,1251.002 326.269345,1251.002 L325.082345,1251.002 C325.546345,1248.721 327.566345,1246.999 329.982345,1247 C330.985345,1246.999 331.914345,1247.303 332.693345,1247.818 L334.128345,1246.383 C332.965345,1245.521 331.537345,1245 329.982345,1245 C326.462345,1245 323.539345,1247.614 323.053345,1251.002 M336.883345,1252.996 L338.241345,1252.996 C338.845345,1252.996 339.188345,1252.47 338.821345,1251.995 L336.552345,1247.56 C336.260345,1247.182 335.702345,1247.224 335.392345,1247.709 L333.124345,1251.995 C332.756345,1252.471 333.099345,1252.996 333.704345,1252.996 L334.854345,1252.996 C334.387345,1255.274 332.368345,1256.994 329.955345,1256.994 C328.952345,1256.994 328.022345,1256.691 327.243345,1256.176 L325.809345,1257.611 C326.970345,1258.473 328.400345,1258.993 329.955345,1258.992 C333.474345,1258.993 336.395345,1256.383 336.883345,1252.996" id="load"></path>
    </g>
  </g>
</svg>